<mxfile host="app.diagrams.net" modified="2023-10-17T17:44:24.510Z" agent="Mozilla/5.0 (Windows NT 10.0; Win64; x64) AppleWebKit/537.36 (KHTML, like Gecko) Chrome/117.0.0.0 Safari/537.36" etag="c6v5jiWhMc4_Rcl07wGh" version="22.0.4" type="google">
  <diagram name="Página-1" id="oKIlooJLRSVnscNaMvM3">
    <mxGraphModel grid="0" page="0" gridSize="10" guides="1" tooltips="1" connect="1" arrows="1" fold="1" pageScale="1" pageWidth="827" pageHeight="1169" math="0" shadow="0">
      <root>
        <mxCell id="0" />
        <mxCell id="1" parent="0" />
        <mxCell id="vl5e5Eoal59rmltI6flh-1" value="" style="edgeStyle=orthogonalEdgeStyle;rounded=0;orthogonalLoop=1;jettySize=auto;html=1;" edge="1" parent="1" source="vl5e5Eoal59rmltI6flh-3" target="vl5e5Eoal59rmltI6flh-5">
          <mxGeometry relative="1" as="geometry" />
        </mxCell>
        <mxCell id="vl5e5Eoal59rmltI6flh-2" value="UsuarioA&lt;br&gt;ASODI" style="edgeLabel;html=1;align=center;verticalAlign=middle;resizable=0;points=[];" connectable="0" vertex="1" parent="vl5e5Eoal59rmltI6flh-1">
          <mxGeometry x="-0.1704" relative="1" as="geometry">
            <mxPoint as="offset" />
          </mxGeometry>
        </mxCell>
        <mxCell id="vl5e5Eoal59rmltI6flh-3" value="Inicio" style="ellipse;whiteSpace=wrap;html=1;" vertex="1" parent="1">
          <mxGeometry x="-485" y="76" width="120" height="80" as="geometry" />
        </mxCell>
        <mxCell id="vl5e5Eoal59rmltI6flh-4" value="" style="edgeStyle=orthogonalEdgeStyle;rounded=0;orthogonalLoop=1;jettySize=auto;html=1;" edge="1" parent="1" source="vl5e5Eoal59rmltI6flh-5" target="vl5e5Eoal59rmltI6flh-7">
          <mxGeometry relative="1" as="geometry" />
        </mxCell>
        <mxCell id="vl5e5Eoal59rmltI6flh-5" value="Inicio Sesión" style="whiteSpace=wrap;html=1;" vertex="1" parent="1">
          <mxGeometry x="-485" y="246" width="120" height="60" as="geometry" />
        </mxCell>
        <mxCell id="vl5e5Eoal59rmltI6flh-6" value="" style="edgeStyle=orthogonalEdgeStyle;rounded=0;orthogonalLoop=1;jettySize=auto;html=1;" edge="1" parent="1" source="vl5e5Eoal59rmltI6flh-7" target="vl5e5Eoal59rmltI6flh-9">
          <mxGeometry relative="1" as="geometry" />
        </mxCell>
        <mxCell id="vl5e5Eoal59rmltI6flh-7" value="Sección de registro de glucemia" style="whiteSpace=wrap;html=1;" vertex="1" parent="1">
          <mxGeometry x="-485" y="386" width="120" height="60" as="geometry" />
        </mxCell>
        <mxCell id="vl5e5Eoal59rmltI6flh-8" value="" style="edgeStyle=orthogonalEdgeStyle;rounded=0;orthogonalLoop=1;jettySize=auto;html=1;" edge="1" parent="1" source="vl5e5Eoal59rmltI6flh-9">
          <mxGeometry relative="1" as="geometry">
            <mxPoint x="-85" y="416" as="targetPoint" />
          </mxGeometry>
        </mxCell>
        <mxCell id="vl5e5Eoal59rmltI6flh-9" value="Selecciona el registro" style="whiteSpace=wrap;html=1;" vertex="1" parent="1">
          <mxGeometry x="-285" y="386" width="120" height="60" as="geometry" />
        </mxCell>
        <mxCell id="vl5e5Eoal59rmltI6flh-10" value="" style="edgeStyle=orthogonalEdgeStyle;rounded=0;orthogonalLoop=1;jettySize=auto;html=1;" edge="1" parent="1" source="vl5e5Eoal59rmltI6flh-11" target="vl5e5Eoal59rmltI6flh-16">
          <mxGeometry relative="1" as="geometry" />
        </mxCell>
        <mxCell id="vl5e5Eoal59rmltI6flh-11" value="Eliminar registro" style="whiteSpace=wrap;html=1;" vertex="1" parent="1">
          <mxGeometry x="-85" y="386" width="120" height="60" as="geometry" />
        </mxCell>
        <mxCell id="vl5e5Eoal59rmltI6flh-12" value="" style="edgeStyle=orthogonalEdgeStyle;rounded=0;orthogonalLoop=1;jettySize=auto;html=1;exitX=1;exitY=0.5;exitDx=0;exitDy=0;" edge="1" parent="1" source="vl5e5Eoal59rmltI6flh-16" target="vl5e5Eoal59rmltI6flh-18">
          <mxGeometry relative="1" as="geometry" />
        </mxCell>
        <mxCell id="vl5e5Eoal59rmltI6flh-13" value="Si" style="edgeLabel;html=1;align=center;verticalAlign=middle;resizable=0;points=[];" connectable="0" vertex="1" parent="vl5e5Eoal59rmltI6flh-12">
          <mxGeometry x="-0.35" y="-2" relative="1" as="geometry">
            <mxPoint as="offset" />
          </mxGeometry>
        </mxCell>
        <mxCell id="vl5e5Eoal59rmltI6flh-14" value="" style="edgeStyle=orthogonalEdgeStyle;rounded=0;orthogonalLoop=1;jettySize=auto;html=1;" edge="1" parent="1" source="vl5e5Eoal59rmltI6flh-16" target="vl5e5Eoal59rmltI6flh-20">
          <mxGeometry relative="1" as="geometry" />
        </mxCell>
        <mxCell id="vl5e5Eoal59rmltI6flh-15" value="No" style="edgeLabel;html=1;align=center;verticalAlign=middle;resizable=0;points=[];" connectable="0" vertex="1" parent="vl5e5Eoal59rmltI6flh-14">
          <mxGeometry x="0.1556" y="-2" relative="1" as="geometry">
            <mxPoint as="offset" />
          </mxGeometry>
        </mxCell>
        <mxCell id="vl5e5Eoal59rmltI6flh-16" value="¿Eliminación&lt;br&gt;Exitosa?" style="rhombus;whiteSpace=wrap;html=1;" vertex="1" parent="1">
          <mxGeometry x="85" y="376" width="80" height="80" as="geometry" />
        </mxCell>
        <mxCell id="vl5e5Eoal59rmltI6flh-17" style="edgeStyle=orthogonalEdgeStyle;rounded=0;orthogonalLoop=1;jettySize=auto;html=1;entryX=1;entryY=0.5;entryDx=0;entryDy=0;" edge="1" parent="1" source="vl5e5Eoal59rmltI6flh-18" target="vl5e5Eoal59rmltI6flh-21">
          <mxGeometry relative="1" as="geometry">
            <mxPoint x="275" y="696" as="targetPoint" />
            <Array as="points">
              <mxPoint x="265" y="286" />
              <mxPoint x="265" y="716" />
            </Array>
          </mxGeometry>
        </mxCell>
        <mxCell id="vl5e5Eoal59rmltI6flh-18" value="Mostrar confirmación de eliminación" style="whiteSpace=wrap;html=1;" vertex="1" parent="1">
          <mxGeometry x="125" y="256" width="120" height="60" as="geometry" />
        </mxCell>
        <mxCell id="vl5e5Eoal59rmltI6flh-19" value="" style="edgeStyle=orthogonalEdgeStyle;rounded=0;orthogonalLoop=1;jettySize=auto;html=1;" edge="1" parent="1" source="vl5e5Eoal59rmltI6flh-20" target="vl5e5Eoal59rmltI6flh-21">
          <mxGeometry relative="1" as="geometry" />
        </mxCell>
        <mxCell id="vl5e5Eoal59rmltI6flh-20" value="Mostrar mensaje de error" style="whiteSpace=wrap;html=1;" vertex="1" parent="1">
          <mxGeometry x="65" y="546" width="120" height="60" as="geometry" />
        </mxCell>
        <mxCell id="vl5e5Eoal59rmltI6flh-21" value="Fin" style="ellipse;whiteSpace=wrap;html=1;" vertex="1" parent="1">
          <mxGeometry x="85" y="676" width="80" height="80" as="geometry" />
        </mxCell>
      </root>
    </mxGraphModel>
  </diagram>
</mxfile>
